<svg width="119" height="114" viewBox="0 0 119 114" fill="none" xmlns="http://www.w3.org/2000/svg">
<g clip-path="url(#clip0)">
<path d="M118.364 2.2527V111.553C118.364 112.104 118.146 112.632 117.759 113.021C117.372 113.411 116.847 113.631 116.298 113.633H101.232C100.805 113.633 100.389 113.5 100.041 113.253C99.6922 113.005 99.4287 112.656 99.2864 112.252L70.3073 30.4114C70.1378 29.9445 69.8073 29.554 69.3757 29.3104C68.9441 29.0669 68.4399 28.9863 67.9543 29.0834C67.4686 29.1805 67.0336 29.4488 66.728 29.8398C66.4225 30.2307 66.2664 30.7185 66.2882 31.2148C66.6175 37.8928 66.7797 44.1228 66.7747 49.9047V96.8658H53.303V40.6236L71.9239 0.270333L101.397 83.1394C101.562 83.6127 101.892 84.0101 102.326 84.258C102.76 84.5059 103.269 84.5874 103.759 84.4875C104.249 84.3876 104.686 84.1131 104.989 83.7147C105.292 83.3163 105.441 82.8212 105.409 82.3209C105.289 80.1133 105.192 77.9532 105.117 75.8407C104.962 71.6657 104.885 67.6834 104.885 63.8939V2.2527C104.884 1.97892 104.937 1.70764 105.04 1.45442C105.144 1.2012 105.297 0.971014 105.489 0.777073C105.682 0.583133 105.911 0.42925 106.163 0.324252C106.415 0.219253 106.685 0.165205 106.958 0.165207H116.298C116.57 0.166191 116.84 0.220967 117.091 0.326406C117.342 0.431846 117.57 0.585884 117.762 0.779727C117.954 0.973569 118.106 1.20342 118.209 1.45615C118.312 1.70889 118.365 1.97955 118.364 2.2527Z" fill="#E4F2F1"/>
<path d="M21.9065 100.62H66.8121V111.606C66.8121 111.874 66.7594 112.139 66.657 112.386C66.5546 112.634 66.4046 112.858 66.2154 113.048C66.0263 113.237 65.8018 113.386 65.5549 113.488C65.3079 113.59 65.0434 113.642 64.7764 113.641L2.65692 113.416C2.31517 113.413 1.97957 113.324 1.68105 113.157C1.38252 112.99 1.13068 112.751 0.948753 112.461C0.766821 112.17 0.66065 111.839 0.640028 111.496C0.619406 111.154 0.684997 110.812 0.830754 110.502L52.7941 1.15639C52.9601 0.808333 53.2214 0.514817 53.5474 0.310071C53.8733 0.105325 54.2506 -0.00221198 54.6352 3.02252e-06H68.309L68.1818 0.270326" fill="#02A6A7"/>
</g>
<defs>
<clipPath id="clip0">
<rect width="119" height="114" fill="white"/>
</clipPath>
</defs>
</svg>
