<?xml version="1.0" standalone="no"?>
<!DOCTYPE svg PUBLIC "-//W3C//DTD SVG 20010904//EN"
 "http://www.w3.org/TR/2001/REC-SVG-20010904/DTD/svg10.dtd">
<svg version="1.0" xmlns="http://www.w3.org/2000/svg"
 width="952.000000pt" height="952.000000pt" viewBox="0 0 952.000000 952.000000"
 preserveAspectRatio="xMidYMid meet">
<metadata>
Created by potrace 1.11, written by Peter Selinger 2001-2013
</metadata>
<g transform="translate(0.000000,952.000000) scale(0.100000,-0.100000)"
fill="#000000" stroke="none">
<path d="M4308 9307 c-14 -7 -36 -21 -48 -32 -21 -18 -150 -271 -156 -305 -2
-8 -8 -16 -13 -18 -6 -2 -11 -10 -11 -17 0 -7 -9 -30 -20 -52 -47 -92 -110
-229 -110 -239 0 -6 -7 -17 -15 -24 -8 -7 -15 -20 -15 -29 0 -9 -6 -23 -12
-29 -7 -7 -13 -16 -13 -20 -1 -4 -16 -38 -34 -77 -18 -38 -49 -104 -67 -145
-19 -41 -39 -82 -44 -90 -6 -8 -14 -24 -19 -36 -10 -21 -53 -113 -148 -314
-31 -63 -70 -146 -88 -185 -18 -38 -59 -124 -90 -190 -225 -471 -255 -536
-255 -546 0 -5 -4 -9 -10 -9 -5 0 -10 -5 -10 -12 0 -6 -14 -41 -32 -77 -17
-36 -32 -68 -33 -71 -1 -3 -20 -43 -42 -90 -56 -117 -146 -306 -200 -420 -25
-52 -55 -115 -67 -140 -11 -25 -25 -48 -31 -52 -5 -4 -7 -8 -3 -8 3 0 -10 -35
-31 -77 -74 -152 -101 -211 -101 -220 0 -5 -6 -15 -12 -22 -7 -6 -13 -15 -14
-19 0 -4 -20 -47 -44 -97 -24 -49 -44 -92 -45 -95 0 -3 -19 -41 -40 -85 -22
-44 -40 -82 -40 -85 -1 -3 -21 -45 -45 -95 -24 -49 -45 -92 -45 -95 -1 -3 -16
-34 -33 -69 -18 -36 -32 -70 -32 -77 0 -7 -3 -14 -7 -16 -13 -5 -70 -129 -71
-152 0 -5 -4 -12 -9 -15 -5 -3 -17 -24 -28 -46 -32 -70 -126 -267 -163 -345
-20 -41 -37 -77 -38 -80 0 -3 -27 -59 -59 -125 -32 -66 -59 -122 -60 -125 0
-3 -20 -45 -44 -95 -51 -106 -128 -268 -181 -380 -21 -44 -61 -129 -91 -190
-29 -60 -52 -113 -51 -117 1 -5 -3 -8 -8 -8 -5 0 -9 -3 -8 -7 1 -5 -16 -44
-37 -88 -21 -44 -39 -82 -40 -85 0 -3 -22 -48 -47 -100 -61 -126 -162 -337
-205 -430 -20 -41 -62 -130 -94 -198 -33 -68 -59 -127 -59 -133 0 -5 -5 -9
-10 -9 -6 0 -9 -3 -8 -7 1 -5 -17 -48 -40 -97 -23 -49 -42 -92 -42 -95 0 -4
-6 -13 -12 -19 -7 -7 -13 -16 -13 -20 -1 -4 -16 -38 -34 -77 -53 -111 -89
-189 -100 -216 -6 -13 -15 -31 -20 -39 -5 -8 -20 -37 -32 -65 -12 -27 -27 -53
-32 -56 -5 -3 -8 -9 -6 -13 3 -9 -53 -129 -64 -137 -5 -3 -9 -10 -9 -15 -1
-14 -12 -40 -67 -157 -28 -59 -51 -112 -51 -117 0 -6 -4 -10 -9 -10 -5 0 -12
-10 -16 -22 -4 -13 -8 -25 -9 -28 -1 -3 -21 -43 -43 -90 -44 -91 -143 -298
-187 -391 -14 -31 -26 -60 -26 -64 0 -5 -6 -16 -13 -24 -8 -9 -22 -38 -31 -64
-23 -60 -15 -118 20 -164 53 -69 25 -66 679 -67 386 -1 593 -4 597 -11 5 -7 8
-7 8 0 0 6 29 9 73 8 87 -4 75 -4 172 0 44 1 88 -1 98 -5 9 -5 17 -5 17 -1 0
10 41 10 58 -1 7 -4 12 -4 12 1 0 4 11 8 25 8 14 0 25 -4 25 -8 0 -4 9 -3 19
3 12 6 22 6 26 1 3 -6 17 -6 35 -1 18 5 30 5 30 0 0 -6 10 -6 25 0 15 6 25 6
25 0 0 -5 12 -5 30 0 18 5 30 5 30 0 0 -6 10 -6 25 0 14 5 25 6 25 2 0 -4 18
-7 39 -7 22 0 37 3 34 7 -2 5 6 4 19 0 26 -9 60 -8 77 2 6 4 11 3 11 -1 0 -10
41 -10 57 0 5 4 13 4 16 0 10 -9 97 -9 97 0 0 4 8 4 17 0 10 -5 52 -7 93 -6
41 2 82 3 90 3 740 1 1990 -7 1990 -13 0 -5 5 -5 10 -2 6 3 132 6 281 5 256
-1 272 0 307 20 21 12 48 37 62 57 l24 36 1 451 c1 248 -1 457 -3 464 -3 9
-371 12 -1793 12 -1445 0 -1789 2 -1789 13 0 7 6 21 14 32 7 11 14 22 13 25 0
5 22 54 80 180 106 228 143 310 143 320 0 5 5 10 10 10 6 0 10 6 10 14 0 8 11
36 24 63 13 26 33 68 44 93 11 25 41 89 66 143 25 53 45 98 45 100 0 1 13 29
29 62 16 33 40 83 52 110 12 28 41 91 64 140 24 50 49 106 56 125 8 19 16 37
19 40 7 6 91 190 94 205 1 6 4 12 7 15 3 3 32 64 64 135 85 187 134 293 162
348 13 27 24 55 24 63 0 8 5 14 10 14 6 0 10 6 10 13 0 8 16 46 35 86 19 39
35 73 35 75 0 5 105 231 130 279 11 22 20 45 20 53 0 8 5 14 10 14 6 0 10 5
10 11 0 5 12 36 26 67 14 31 49 107 76 167 28 61 68 148 90 195 22 47 51 109
64 138 13 28 36 78 51 110 14 31 26 60 25 65 -1 4 3 7 8 7 5 0 9 3 8 8 -1 4
11 34 26 67 48 104 87 188 121 260 18 39 43 93 55 120 36 80 74 162 129 279
28 59 51 110 51 111 0 2 21 47 47 102 26 54 47 100 48 103 2 6 30 68 74 163
57 123 93 202 118 257 14 30 42 91 63 135 21 44 50 107 66 140 15 33 28 62 29
65 1 3 18 40 38 84 20 43 37 80 37 81 0 2 28 61 61 132 54 112 78 165 84 183
1 3 21 46 44 95 121 256 186 401 183 407 -1 5 2 8 8 8 6 0 9 3 8 8 -1 4 12 36
29 72 101 213 117 246 117 252 1 3 4 10 9 14 4 4 7 16 7 26 0 10 5 18 10 18 6
0 10 4 10 9 0 5 15 42 34 83 18 40 34 76 35 80 1 4 17 38 35 75 18 37 36 78
40 91 4 12 12 22 17 22 5 0 8 3 6 8 -3 11 35 95 48 104 5 4 7 8 2 8 -4 0 11
36 33 80 22 44 39 81 39 82 -1 2 9 23 21 48 13 25 25 50 26 55 2 11 123 274
182 395 19 41 36 77 37 80 0 3 11 27 23 54 12 27 22 50 22 52 0 2 -253 4 -562
3 -410 0 -570 -4 -590 -12z"/>
<path d="M8492 9293 c-37 -19 -71 -52 -88 -86 -13 -24 -14 -397 -11 -2850 3
-1552 7 -2887 10 -2967 10 -267 17 -392 23 -401 3 -5 0 -9 -6 -9 -6 0 -8 -5
-4 -11 3 -6 8 -52 10 -102 2 -51 6 -109 7 -130 2 -21 0 -40 -5 -43 -5 -3 -6
-9 -3 -13 2 -5 -5 -23 -18 -41 -85 -125 -247 -102 -300 42 -52 142 -88 245
-92 260 -2 9 -9 26 -15 37 -6 12 -7 21 -3 21 4 0 2 5 -5 12 -7 7 -12 19 -12
28 0 8 -7 28 -15 44 -8 15 -15 37 -15 47 0 11 -4 19 -8 19 -5 0 -9 6 -9 13 -1
11 -45 140 -63 182 -4 11 -11 29 -13 40 -3 11 -22 65 -42 120 -58 161 -75 207
-91 255 -8 25 -18 52 -21 60 -3 8 -7 20 -9 25 -3 14 -83 236 -91 255 -3 8 -7
17 -7 20 -3 14 -70 199 -82 227 -8 17 -17 45 -20 62 -4 17 -11 34 -15 37 -5 3
-9 11 -9 19 0 8 -4 24 -9 37 -5 13 -9 26 -10 30 -1 4 -10 28 -21 53 -11 25
-17 45 -15 45 2 0 -4 19 -14 43 -10 23 -30 78 -45 122 -15 44 -31 89 -36 100
-5 11 -16 40 -24 65 -29 90 -78 225 -93 259 -8 20 -17 47 -19 61 -3 13 -11 38
-19 55 -7 16 -29 75 -48 130 -20 55 -56 159 -82 230 -26 72 -48 135 -49 140
-2 6 -6 18 -9 28 -9 21 -16 46 -17 52 0 3 -9 25 -20 50 -11 25 -20 47 -20 50
0 3 -3 10 -5 17 -19 52 -100 282 -112 318 -8 25 -19 54 -23 65 -5 11 -16 40
-24 65 -17 52 -93 263 -129 363 -14 37 -23 67 -20 67 3 0 1 6 -4 13 -8 9 -50
122 -58 157 -1 3 -5 12 -8 20 -9 20 -67 181 -72 200 -6 22 -73 207 -96 264
-10 27 -19 56 -19 65 0 10 -4 21 -9 27 -7 7 -39 94 -47 129 -2 6 -16 45 -32
88 -17 42 -28 77 -25 77 3 0 1 6 -4 13 -6 6 -28 64 -49 127 -21 63 -41 117
-44 120 -3 3 -6 12 -7 20 -2 8 -17 51 -33 95 -17 44 -33 87 -35 95 -2 8 -11
35 -20 60 -9 25 -25 71 -36 102 -11 32 -24 70 -31 85 -6 16 -12 33 -14 38 -1
6 -14 44 -29 85 -15 41 -40 113 -57 160 -16 47 -32 92 -35 100 -3 8 -23 62
-43 119 -20 58 -41 106 -47 108 -6 2 -16 -11 -23 -29 -8 -18 -31 -68 -51 -111
-21 -43 -38 -80 -39 -82 -1 -6 -51 -116 -111 -243 -27 -57 -49 -105 -49 -106
0 -2 -23 -53 -51 -112 -62 -133 -73 -157 -71 -166 1 -5 -2 -8 -8 -8 -5 0 -10
-4 -10 -10 0 -5 -15 -42 -34 -82 -19 -39 -33 -75 -30 -80 3 -4 1 -8 -4 -8 -6
0 -17 -17 -25 -37 -8 -21 -34 -78 -57 -128 -23 -49 -55 -117 -70 -150 -15 -33
-40 -87 -56 -120 -15 -33 -28 -62 -29 -65 -6 -20 -20 -46 -27 -50 -4 -3 -9
-15 -11 -25 -2 -11 -24 -63 -49 -115 -25 -52 -57 -120 -70 -150 -14 -30 -40
-85 -57 -123 -17 -37 -31 -72 -31 -77 0 -6 -4 -10 -10 -10 -5 0 -10 -6 -10
-14 0 -7 -24 -65 -53 -127 -30 -63 -65 -139 -80 -169 -14 -30 -38 -82 -53
-115 -15 -33 -28 -62 -29 -65 0 -3 -10 -23 -22 -45 -11 -22 -22 -43 -22 -47
-1 -4 -22 -51 -46 -103 -25 -53 -45 -101 -45 -106 0 -5 -5 -9 -12 -9 -6 0 -9
-3 -5 -6 3 -4 -7 -33 -23 -65 -17 -32 -30 -65 -30 -74 0 -8 -4 -15 -9 -15 -5
0 -13 -10 -17 -22 -4 -13 -18 -48 -32 -78 l-26 -55 -1 -2243 c0 -1234 3 -2248
6 -2253 3 -5 223 -8 539 -7 l533 3 -2 2005 c-1 2246 -2 2131 5 2142 3 4 2 8
-3 8 -4 0 -9 73 -9 163 -2 167 -11 496 -19 672 -13 280 -13 292 5 332 21 47
48 71 95 87 41 15 118 12 123 -4 2 -5 10 -10 17 -10 7 0 24 -15 38 -34 27 -34
32 -48 91 -217 18 -52 38 -105 45 -117 6 -12 10 -22 7 -22 -2 0 5 -24 16 -52
11 -29 23 -64 28 -78 4 -14 31 -90 60 -170 28 -80 53 -149 54 -155 2 -5 7 -21
13 -35 5 -14 27 -74 47 -135 21 -60 42 -119 47 -130 5 -11 19 -51 33 -90 66
-196 79 -232 92 -262 8 -17 14 -35 14 -39 0 -5 11 -38 24 -74 13 -36 39 -105
56 -155 17 -49 35 -99 40 -110 9 -21 54 -149 95 -270 13 -38 33 -97 45 -130
12 -33 45 -123 72 -200 27 -77 56 -158 64 -180 8 -22 17 -47 19 -55 2 -8 4
-16 5 -17 2 -2 3 -6 5 -10 1 -5 4 -15 8 -23 3 -8 17 -49 32 -90 14 -41 28 -82
32 -90 3 -8 7 -17 8 -20 6 -25 29 -91 41 -117 8 -17 14 -37 14 -45 0 -8 3 -18
8 -22 4 -4 7 -11 7 -14 0 -4 5 -20 12 -37 6 -16 27 -77 47 -135 32 -92 55
-155 81 -225 5 -11 9 -27 11 -35 2 -8 15 -44 29 -79 14 -36 25 -68 25 -72 0
-4 5 -20 12 -36 6 -15 12 -32 14 -38 3 -10 111 -319 121 -345 4 -8 7 -17 8
-20 1 -3 4 -12 8 -20 5 -14 55 -155 79 -225 5 -16 14 -39 18 -50 9 -23 74
-207 76 -215 1 -5 5 -18 23 -65 5 -11 16 -42 25 -70 103 -295 127 -363 136
-378 6 -10 8 -22 5 -27 -4 -6 -2 -10 3 -10 5 0 9 -6 9 -12 1 -12 44 -139 63
-183 15 -37 74 -210 73 -215 -1 -3 3 -10 8 -16 5 -7 12 -22 14 -35 3 -12 17
-54 32 -93 15 -39 28 -75 29 -81 1 -5 14 -44 29 -85 15 -41 40 -113 56 -160
17 -47 34 -94 39 -105 9 -20 47 -128 55 -155 2 -8 20 -60 40 -115 20 -55 38
-104 39 -110 8 -28 26 -62 45 -82 51 -54 30 -52 713 -53 462 0 644 3 669 11
37 13 71 45 94 88 12 24 14 606 14 4441 0 3120 -3 4419 -11 4434 -16 33 -60
77 -88 89 -17 7 -164 11 -438 12 -336 1 -418 -1 -440 -12z"/>
</g>
</svg>
